<?xml version="1.0" encoding="UTF-8"?>
<svg viewBox="50 60 700 200" xmlns="http://www.w3.org/2000/svg">
    <!-- Background -->
    <!-- <rect y='0' width="800" height="340" fill="#f8f9fa" rx="10" ry="10"/> -->
        
    <!-- Flow arrows -->
    <path d="M220,140 L300,140" stroke="#777777" stroke-width="3" fill="none" marker-end="url(#arrow)"/>
    <path d="M500,140 L560,140" stroke="#777777" stroke-width="3" fill="none" marker-end="url(#arrow)"/>
    
    <!-- Arrow marker definition -->
    <defs>
        <marker id="arrow" viewBox="0 0 10 10" refX="9" refY="5"
                markerWidth="6" markerHeight="6" orient="auto">
            <path d="M 0 0 L 10 5 L 0 10 z" fill="#777777"/>
        </marker>
    </defs>
    
    <!-- Data sources icon -->
    <g transform="translate(130,140)">
        <!-- Database icons in triangle arrangement -->
        <rect x="-80" y="-80" width="160" height="160" rx="15" fill="#0173b2" opacity="0.9"/>
        
        <!-- Database 1 (top) -->
        <g transform="translate(-19,-35) scale(1.5)">
            <ellipse cx="12" cy="5" rx="9" ry="3" fill="none" stroke="white" stroke-width="2" stroke-linecap="round" stroke-linejoin="round"/>
            <path d="M3 5V19A9 3 0 0 0 21 19V5" fill="none" stroke="white" stroke-width="2" stroke-linecap="round" stroke-linejoin="round"/>
            <path d="M3 12A9 3 0 0 0 21 12" fill="none" stroke="white" stroke-width="2" stroke-linecap="round" stroke-linejoin="round"/>
        </g>
        
        <!-- Database 2 (bottom left) -->
        <g transform="translate(-54,10) scale(1.5)">
            <ellipse cx="12" cy="5" rx="9" ry="3" fill="none" stroke="white" stroke-width="2" stroke-linecap="round" stroke-linejoin="round"/>
            <path d="M3 5V19A9 3 0 0 0 21 19V5" fill="none" stroke="white" stroke-width="2" stroke-linecap="round" stroke-linejoin="round"/>
            <path d="M3 12A9 3 0 0 0 21 12" fill="none" stroke="white" stroke-width="2" stroke-linecap="round" stroke-linejoin="round"/>
        </g>
        
        <!-- Database 3 (bottom right) -->
        <g transform="translate(15,10) scale(1.5)">
            <ellipse cx="12" cy="5" rx="9" ry="3" fill="none" stroke="white" stroke-width="2" stroke-linecap="round" stroke-linejoin="round"/>
            <path d="M3 5V19A9 3 0 0 0 21 19V5" fill="none" stroke="white" stroke-width="2" stroke-linecap="round" stroke-linejoin="round"/>
            <path d="M3 12A9 3 0 0 0 21 12" fill="none" stroke="white" stroke-width="2" stroke-linecap="round" stroke-linejoin="round"/>
        </g>
        <text x="0" y="-55" font-family="Arial, sans-serif" font-size="16" font-weight="bold" text-anchor="middle" fill="white">Solubility Data</text>
        <text x="0" y="65" font-family="Arial, sans-serif" font-size="16" text-anchor="middle" fill="white">ETL</text>
    </g>
    
    <!-- Empirical modeling (CENTERED) -->
    <g transform="translate(670,140)">
        <rect x="-80" y="-80" width="160" height="160" rx="15" fill="#de8f05" opacity="0.9"/>
        <path d="M-60,35 C-40,-5 20,-35 60,-40" stroke="white" stroke-width="3" fill="none"/>
        <circle cx="-60" cy="35" r="5" fill="white"/>
        <circle cx="60" cy="-40" r="5" fill="white"/>

        <path d="M-55,55 C-40,15 20,-15 60,-20" stroke="white" stroke-width="3" fill="none"/>
        <circle cx="-55" cy="55" r="5" fill="white"/>
        <circle cx="60" cy="-20" r="5" fill="white"/>
        
        <text x="0" y="-55" font-family="Arial, sans-serif" font-size="16" font-weight="bold" text-anchor="middle" fill="#ffffff">Jouyban-Acree</text>
        <text x="0" y="65" font-family="Arial, sans-serif" font-size="16" text-anchor="middle" fill="#ffffff">J<tspan font-size="10" baseline-shift="-2">0</tspan>, J<tspan font-size="10" baseline-shift="-2">1</tspan>, J<tspan font-size="10" baseline-shift="-2">2</tspan></text>
    </g>
    
    <!-- ML prediction -->
    <g transform="translate(400,140)">
        <rect x="-80" y="-80" width="160" height="160" rx="15" fill="#029e73" opacity="0.9"/>
        <circle cx="-40" cy="-30" r="10" fill="#ffffff" opacity="0.7"/>
        <circle cx="0" cy="-30" r="10" fill="#ffffff" opacity="0.7"/>
        <circle cx="40" cy="-30" r="10" fill="#ffffff" opacity="0.7"/>
        
        <circle cx="-40" cy="0" r="10" fill="#ffffff" opacity="0.7"/>
        <circle cx="0" cy="0" r="10" fill="#ffffff" opacity="0.7"/>
        <circle cx="40" cy="0" r="10" fill="#ffffff" opacity="0.7"/>
        
        <circle cx="-40" cy="30" r="10" fill="#ffffff" opacity="0.7"/>
        <circle cx="0" cy="30" r="10" fill="#ffffff" opacity="0.7"/>
        <circle cx="40" cy="30" r="10" fill="#ffffff" opacity="0.7"/>
        
        <!-- Connecting lines -->
        <line x1="-40" y1="-30" x2="0" y2="0" stroke="#ffffff" stroke-width="2"/>
        <line x1="-40" y1="-30" x2="40" y2="0" stroke="#ffffff" stroke-width="2"/>
        <line x1="0" y1="-30" x2="-40" y2="0" stroke="#ffffff" stroke-width="2"/>
        <line x1="0" y1="-30" x2="40" y2="0" stroke="#ffffff" stroke-width="2"/>
        <line x1="40" y1="-30" x2="0" y2="0" stroke="#ffffff" stroke-width="2"/>
        <line x1="40" y1="-30" x2="-40" y2="0" stroke="#ffffff" stroke-width="2"/>
        
        <line x1="-40" y1="0" x2="0" y2="30" stroke="#ffffff" stroke-width="2"/>
        <line x1="-40" y1="0" x2="40" y2="30" stroke="#ffffff" stroke-width="2"/>
        <line x1="0" y1="0" x2="-40" y2="30" stroke="#ffffff" stroke-width="2"/>
        <line x1="0" y1="0" x2="40" y2="30" stroke="#ffffff" stroke-width="2"/>
        <line x1="40" y1="0" x2="0" y2="30" stroke="#ffffff" stroke-width="2"/>
        <line x1="40" y1="0" x2="-40" y2="30" stroke="#ffffff" stroke-width="2"/>
        
        <text x="0" y="-55" font-family="Arial, sans-serif" font-size="16" font-weight="bold" text-anchor="middle" fill="#ffffff">Machine Learning</text>
        <text x="0" y="65" font-family="Arial, sans-serif" font-size="16" text-anchor="middle" fill="#ffffff">J<tspan font-size="10" baseline-shift="-2">0?</tspan>, J<tspan font-size="10" baseline-shift="-2">1?</tspan>, J<tspan font-size="10" baseline-shift="-2">2?</tspan></text>
    </g>
    
    <!-- Top to bottom flow texts -->
    <text x="130" y="250" font-family="Arial, sans-serif" font-size="14" text-anchor="middle" fill="#777777">Data Acquisition</text>
    <text x="400" y="250" font-family="Arial, sans-serif" font-size="14" text-anchor="middle" fill="#777777">Parameter Prediction</text>
    <text  x="670" y="250" font-family="Arial, sans-serif" font-size="14" text-anchor="middle" fill="#777777">Solubility Equation</text>
    
    <!-- Bottom line -->
    <!-- <text x="400" y="290" font-family="Arial, sans-serif" font-size="18" font-style="italic" text-anchor="middle" fill="#333333">Predicting Solubility in Binary Solvent Systems</text> -->
</svg>